<svg width="1200" height="900" viewBox="0 0 1200 900" fill="none" xmlns="http://www.w3.org/2000/svg">
  <defs>
    <linearGradient id="bg" x1="120" y1="60" x2="1080" y2="840" gradientUnits="userSpaceOnUse">
      <stop stop-color="#D8F3DC"/>
      <stop offset="1" stop-color="#B7E4C7"/>
    </linearGradient>
    <linearGradient id="roof" x1="338" y1="188" x2="864" y2="444" gradientUnits="userSpaceOnUse">
      <stop stop-color="#14532D"/>
      <stop offset="1" stop-color="#0F766E"/>
    </linearGradient>
    <linearGradient id="dark" x1="430" y1="330" x2="770" y2="720" gradientUnits="userSpaceOnUse">
      <stop stop-color="#2F855A"/>
      <stop offset="1" stop-color="#166534"/>
    </linearGradient>
    <linearGradient id="mint" x1="224" y1="612" x2="996" y2="744" gradientUnits="userSpaceOnUse">
      <stop stop-color="#34D399"/>
      <stop offset="1" stop-color="#74C69D"/>
    </linearGradient>
  </defs>

  <rect width="1200" height="900" rx="60" fill="url(#bg)"/>

  <rect x="90" y="88" width="1020" height="724" rx="48" fill="#FFFFFF" fill-opacity="0.32"/>
  <rect x="126" y="124" width="948" height="652" rx="40" fill="#FFFFFF" fill-opacity="0.24"/>

  <path d="M220 710C300 622 440 576 600 576C760 576 900 622 980 710" stroke="url(#mint)" stroke-width="32" stroke-linecap="round" fill="none"/>
  <path d="M252 710C320 646 450 606 600 606C750 606 880 646 948 710" stroke="#86EFAC" stroke-width="18" stroke-linecap="round" fill="none" opacity="0.75"/>

  <path d="M300 430L600 190L900 430" stroke="url(#roof)" stroke-width="42" stroke-linecap="round" stroke-linejoin="round"/>
  <path d="M354 430L600 232L846 430" stroke="#0F5132" stroke-width="14" stroke-linecap="round" stroke-linejoin="round" opacity="0.65"/>

  <rect x="372" y="398" width="456" height="272" rx="34" fill="#FFFFFF" fill-opacity="0.86" stroke="#0F766E" stroke-width="10"/>
  <rect x="436" y="448" width="122" height="172" rx="28" fill="#22C55E"/>
  <rect x="582" y="448" width="122" height="172" rx="28" fill="#22C55E"/>

  <circle cx="497" cy="402" r="38" fill="#22C55E"/>
  <circle cx="643" cy="402" r="38" fill="#22C55E"/>

  <rect x="406" y="514" width="248" height="216" rx="26" fill="#FFFFFF" stroke="#14532D" stroke-width="12"/>
  <path d="M438 546L450 558L474 524" stroke="#16A34A" stroke-width="12" stroke-linecap="round" stroke-linejoin="round"/>
  <path d="M438 594L450 606L474 572" stroke="#16A34A" stroke-width="12" stroke-linecap="round" stroke-linejoin="round"/>
  <path d="M438 642L450 654L474 620" stroke="#16A34A" stroke-width="12" stroke-linecap="round" stroke-linejoin="round"/>
  <path d="M438 690L450 702L474 668" stroke="#16A34A" stroke-width="12" stroke-linecap="round" stroke-linejoin="round"/>
  <rect x="506" y="544" width="116" height="20" rx="10" fill="#86EFAC"/>
  <rect x="506" y="592" width="116" height="20" rx="10" fill="#86EFAC"/>
  <rect x="506" y="640" width="116" height="20" rx="10" fill="#86EFAC"/>
  <rect x="506" y="688" width="116" height="20" rx="10" fill="#86EFAC"/>

  <circle cx="776" cy="696" r="108" fill="#FFFFFF" stroke="#FFFFFF" stroke-width="18"/>
  <circle cx="776" cy="696" r="86" fill="#22C55E"/>
  <circle cx="776" cy="696" r="72" fill="#16A34A"/>
  <text x="776" y="716" text-anchor="middle" font-family="Arial, Helvetica, sans-serif" font-size="66" font-weight="700" fill="#FFFFFF">Rp</text>

  <rect x="946" y="424" width="54" height="346" rx="27" fill="#14532D"/>
  <rect x="878" y="510" width="54" height="260" rx="27" fill="#22C55E"/>
  <rect x="1040" y="480" width="54" height="290" rx="27" fill="#0F766E"/>

  <rect x="540" y="108" width="182" height="14" rx="7" fill="#14532D" fill-opacity="0.18"/>
  <rect x="540" y="132" width="112" height="10" rx="5" fill="#14532D" fill-opacity="0.14"/>
</svg>
